HIERARCHY
ROOT Hips
{
	OFFSET 0.000000 0.000000 0.000000
	CHANNELS 6 Xposition Yposition Zposition Zrotation Xrotation Yrotation
	JOINT Spine1
	{
		OFFSET 0.000000 -0.000045 277.694702
		CHANNELS 6 Xposition Yposition Zposition Zrotation Xrotation Yrotation
		JOINT Neck
		{
			OFFSET 0.000000 -0.000036 221.388000
			CHANNELS 6 Xposition Yposition Zposition Zrotation Xrotation Yrotation
			JOINT Head
			{
				OFFSET 0.000000 -18.163622 140.768005
				CHANNELS 6 Xposition Yposition Zposition Zrotation Xrotation Yrotation
				End Site
				{
					OFFSET 0.000000 -0.000029 181.635559
				}
			}
		}
		JOINT LeftShoulder
		{
			OFFSET 36.576698 4.801211 178.758972
			CHANNELS 6 Xposition Yposition Zposition Zrotation Xrotation Yrotation
			JOINT LeftArm
			{
				OFFSET 130.515991 0.000000 0.000000
				CHANNELS 6 Xposition Yposition Zposition Zrotation Xrotation Yrotation
				JOINT LeftForeArm
				{
					OFFSET 255.920990 0.000000 0.000000
					CHANNELS 6 Xposition Yposition Zposition Zrotation Xrotation Yrotation
					JOINT LeftHand
					{
						OFFSET 237.844971 0.000000 0.000000
						CHANNELS 6 Xposition Yposition Zposition Zrotation Xrotation Yrotation
						End Site
						{
							OFFSET 136.226685 0.000000 0.000000
						}
					}
				}
			}
		}
		JOINT RightShoulder
		{
			OFFSET -36.072102 4.801211 178.758972
			CHANNELS 6 Xposition Yposition Zposition Zrotation Xrotation Yrotation
			JOINT RightArm
			{
				OFFSET -130.515991 0.000000 0.000000
				CHANNELS 6 Xposition Yposition Zposition Zrotation Xrotation Yrotation
				JOINT RightForeArm
				{
					OFFSET -255.921005 0.000000 0.000000
					CHANNELS 6 Xposition Yposition Zposition Zrotation Xrotation Yrotation
					JOINT RightHand
					{
						OFFSET -237.845032 0.000000 0.000000
						CHANNELS 6 Xposition Yposition Zposition Zrotation Xrotation Yrotation
						End Site
						{
							OFFSET -136.226685 0.000000 0.000000
						}
					}
				}
			}
		}
	}
	JOINT LeftUpLeg
	{
		OFFSET 90.818001 0.000000 0.000000
		CHANNELS 6 Xposition Yposition Zposition Zrotation Xrotation Yrotation
		JOINT LeftLeg
		{
			OFFSET 0.000000 0.000062 -381.949005
			CHANNELS 6 Xposition Yposition Zposition Zrotation Xrotation Yrotation
			JOINT LeftFoot
			{
				OFFSET 0.000000 0.000065 -400.430023
				CHANNELS 6 Xposition Yposition Zposition Zrotation Xrotation Yrotation
				JOINT LeftToeBase
				{
					OFFSET 0.000000 -136.226974 -59.031677
					CHANNELS 6 Xposition Yposition Zposition Zrotation Xrotation Yrotation
					End Site
					{
						OFFSET 0.000000 -36.327118 0.000000
					}
				}
			}
		}
	}
	JOINT RightUpLeg
	{
		OFFSET -90.818001 0.000000 0.000000
		CHANNELS 6 Xposition Yposition Zposition Zrotation Xrotation Yrotation
		JOINT RightLeg
		{
			OFFSET 0.000000 0.000062 -381.949005
			CHANNELS 6 Xposition Yposition Zposition Zrotation Xrotation Yrotation
			JOINT RightFoot
			{
				OFFSET 0.000000 0.000065 -400.430023
				CHANNELS 6 Xposition Yposition Zposition Zrotation Xrotation Yrotation
				JOINT RightToeBase
				{
					OFFSET 0.000000 -136.226974 -59.031677
					CHANNELS 6 Xposition Yposition Zposition Zrotation Xrotation Yrotation
					End Site
					{
						OFFSET 0.000000 -36.327118 0.000000
					}
				}
			}
		}
	}
}
MOTION
Frames: 9
Frame Time: 0.041667
-34.264008 -18.459238 750.981140 -1.186155 18.239518 -2.512929 0.000001 -0.000027 277.694794 -3.191313 -19.976572 -11.084092 -0.000016 -0.000024 221.387955 -3.385632 11.025957 -3.035703 0.000007 -18.163612 140.767853 -1.811209 3.037502 14.773091 36.576702 4.801227 178.759033 1.299061 -5.323668 -17.593959 130.516022 0.000017 0.000052 -9.092889 -11.757668 8.385021 255.921005 -0.000023 0.000039 1.295251 -6.608695 2.603104 237.844940 0.000041 0.000038 16.303976 -7.173941 -3.767972 -36.072109 4.801229 178.758896 -4.308944 -0.857376 13.868364 -130.516022 -0.000001 0.000184 24.214515 18.344087 -22.302844 -255.920990 0.000005 0.000203 75.983225 37.040751 37.393575 -237.845169 0.000103 0.000126 -4.512645 7.525771 33.315692 90.818001 0.000019 0.000006 17.551148 -37.090697 -13.907844 0.000024 0.000090 -381.948975 16.032018 32.301809 3.238356 -0.000009 0.000039 -400.429932 18.233740 4.095192 7.079485 0.000012 -136.226959 -59.031731 0.000001 -0.000001 -0.000002 -90.818001 0.000004 -0.000019 13.576310 -26.927138 35.877170 -0.000028 0.000098 -381.949158 -19.716074 29.727746 -13.731599 0.000073 0.000049 -400.429993 -26.746112 -2.896704 -12.670898 0.000009 -136.226990 -59.031677 -0.000001 0.000000 -0.000001 
-34.333298 -18.435310 751.011230 -1.173488 18.265442 -2.547719 0.000001 -0.000027 277.694641 -3.171650 -19.980180 -11.088222 -0.000039 -0.000024 221.388107 -3.272541 11.008020 -2.943250 -0.000010 -18.163553 140.767639 -1.715941 3.136701 14.737554 36.576672 4.801212 178.759064 1.275277 -5.385790 -17.573884 130.516037 -0.000011 -0.000030 -9.071013 -11.757670 8.368542 255.920959 0.000000 0.000004 1.296916 -6.607214 2.593600 237.844971 -0.000020 -0.000044 16.359099 -7.172864 -3.758535 -36.072124 4.801220 178.759033 -4.260799 -0.917054 13.866048 -130.516052 -0.000016 -0.000207 24.183308 18.318304 -22.285592 -255.920944 -0.000006 -0.000008 76.094933 37.035092 37.304103 -237.845169 0.000098 0.000109 -4.531448 7.531440 33.312796 90.818001 0.000023 -0.000128 17.459627 -37.083583 -13.908687 -0.000030 0.000056 -381.948944 16.104227 32.280044 3.216536 0.000006 0.000051 -400.430023 18.252523 4.122717 7.097377 0.000008 -136.226944 -59.031673 0.000000 -0.000002 -0.000000 -90.818008 0.000034 -0.000023 13.588873 -26.929925 35.915897 0.000018 0.000056 -381.949005 -19.778245 29.713167 -13.715475 0.000027 0.000087 -400.429993 -26.713068 -2.911080 -12.655448 0.000017 -136.227020 -59.031677 -0.000002 -0.000000 -0.000001 
-34.348003 -18.501087 751.036804 -1.156343 18.263578 -2.603826 0.000005 -0.000011 277.694641 -3.132455 -19.978911 -11.054700 0.000019 -0.000039 221.388046 -3.149772 11.065465 -2.760989 0.000057 -18.163588 140.768005 -1.614911 3.149467 14.590876 36.576717 4.801208 178.759125 1.245474 -5.421951 -17.591238 130.516022 -0.000007 0.000140 -9.069467 -11.749439 8.387916 255.921005 -0.000025 0.000006 1.297984 -6.583613 2.536153 237.844894 0.000007 0.000035 16.456543 -7.131032 -3.613122 -36.072098 4.801198 178.758911 -4.245973 -0.935052 13.899916 -130.516037 -0.000018 -0.000056 24.172449 18.258407 -22.311574 -255.920990 -0.000052 -0.000034 76.196989 37.010524 37.197613 -237.845093 0.000075 -0.000014 -4.548859 7.534369 33.340978 90.817993 0.000015 -0.000059 17.400361 -37.029635 -13.877149 -0.000007 0.000105 -381.949005 16.137572 32.238254 3.212857 0.000013 0.000075 -400.429993 18.298551 4.158442 7.073101 -0.000007 -136.226974 -59.031738 -0.000001 -0.000001 0.000000 -90.817978 0.000022 -0.000027 13.591983 -26.903352 35.974125 -0.000050 0.000083 -381.948975 -19.790707 29.704332 -13.728374 0.000004 0.000057 -400.430054 -26.711553 -2.930239 -12.657292 -0.000020 -136.226959 -59.031673 -0.000001 -0.000002 0.000000 
-34.436626 -18.466648 751.070312 -1.125231 18.276973 -2.627187 0.000002 -0.000019 277.694794 -3.101666 -19.969486 -11.049508 0.000001 -0.000001 221.387985 -3.045495 11.198243 -2.548591 -0.000042 -18.163620 140.768158 -1.512058 3.002835 14.459709 36.576721 4.801225 178.759048 1.170247 -5.461330 -17.537634 130.516022 0.000010 -0.000001 -9.101108 -11.758779 8.300129 255.921036 -0.000009 -0.000141 1.330539 -6.592414 2.513872 237.845093 -0.000042 0.000143 16.476604 -7.137766 -3.591209 -36.072090 4.801226 178.759079 -4.230092 -0.956410 13.949183 -130.516022 -0.000000 -0.000134 24.128895 18.197038 -22.359989 -255.921036 -0.000063 0.000032 76.210233 37.009694 37.145328 -237.845093 0.000164 0.000194 -4.486272 7.592346 33.351711 90.818008 0.000011 -0.000023 17.319995 -37.030048 -13.884124 -0.000007 0.000090 -381.948944 16.157287 32.224812 3.207881 -0.000009 0.000066 -400.429932 18.325659 4.183587 7.111613 0.000007 -136.226959 -59.031673 0.000001 -0.000002 0.000001 -90.818008 0.000010 -0.000008 13.591233 -26.890974 35.993485 -0.000012 0.000063 -381.948944 -19.832052 29.693616 -13.725929 0.000065 0.000061 -400.430023 -26.714581 -2.939701 -12.700143 0.000020 -136.227005 -59.031677 0.000002 0.000000 0.000000 
-34.517841 -18.461969 751.107544 -1.092799 18.289066 -2.649058 -0.000002 -0.000004 277.694611 -3.057934 -19.970411 -10.984876 0.000036 -0.000039 221.388046 -2.902407 11.284588 -2.379618 0.000032 -18.163565 140.768265 -1.375922 2.935774 14.349126 36.576729 4.801211 178.759033 1.187758 -5.514198 -17.520081 130.515915 -0.000006 0.000012 -9.229308 -11.824641 8.168934 255.920990 -0.000001 -0.000219 1.366639 -6.561385 2.512729 237.844955 0.000023 -0.000076 16.485454 -7.109109 -3.600122 -36.072098 4.801219 178.758942 -4.224342 -0.951740 13.957867 -130.516037 -0.000009 0.000016 24.128091 18.175487 -22.433690 -255.920990 -0.000093 -0.000053 76.220738 36.983333 37.128809 -237.845093 0.000093 -0.000070 -4.502078 7.564187 33.352698 90.818008 0.000031 -0.000071 17.284636 -37.029051 -13.864359 -0.000015 0.000103 -381.949005 16.150939 32.195910 3.199923 -0.000002 0.000077 -400.430023 18.346593 4.217283 7.113850 -0.000015 -136.226974 -59.031673 -0.000003 -0.000001 0.000000 -90.818008 0.000030 -0.000076 13.589468 -26.876755 36.012821 0.000011 0.000060 -381.949036 -19.855592 29.679269 -13.731884 0.000004 0.000076 -400.430054 -26.720339 -2.960578 -12.671905 -0.000002 -136.226974 -59.031677 0.000001 -0.000000 0.000000 
-34.601822 -18.477983 751.146118 -1.060214 18.295268 -2.655204 0.000002 -0.000050 277.694611 -2.986438 -19.966193 -10.901743 0.000025 -0.000047 221.388077 -2.756013 11.361919 -2.186102 0.000007 -18.163628 140.767960 -1.242592 2.875845 14.194798 36.576717 4.801200 178.758987 1.215188 -5.559088 -17.495400 130.515930 0.000010 -0.000100 -9.409115 -11.919952 7.992995 255.921097 -0.000011 0.000009 1.394231 -6.485083 2.497716 237.844971 0.000061 -0.000041 16.494437 -7.027945 -3.560784 -36.072086 4.801192 178.758881 -4.227143 -0.965402 13.972332 -130.515991 -0.000022 0.000188 24.121588 18.183635 -22.560982 -255.920990 0.000001 0.000154 76.184312 36.978228 37.151332 -237.845154 0.000000 0.000057 -4.517532 7.552126 33.381320 90.818001 0.000011 -0.000011 17.211119 -37.020216 -13.884864 0.000001 0.000040 -381.949036 16.131163 32.169085 3.215857 0.000013 0.000031 -400.430023 18.388816 4.235596 7.117635 0.000027 -136.227005 -59.031673 0.000003 -0.000002 0.000000 -90.817993 0.000010 -0.000042 13.579410 -26.859039 36.009905 -0.000020 0.000075 -381.948944 -19.926180 29.671978 -13.719261 0.000050 0.000053 -400.430054 -26.709661 -2.967243 -12.666420 -0.000033 -136.226990 -59.031673 -0.000002 -0.000000 0.000002 
-34.693336 -18.490046 751.207947 -1.020764 18.298936 -2.655074 -0.000002 -0.000019 277.694763 -2.938214 -19.952892 -10.822371 -0.000021 -0.000017 221.387894 -2.584855 11.418831 -1.947047 -0.000048 -18.163620 140.767929 -1.097195 2.879580 14.004360 36.576668 4.801229 178.758911 1.264414 -5.617693 -17.475019 130.515854 0.000004 -0.000051 -9.611464 -11.939005 7.830775 255.920944 0.000012 -0.000163 1.367471 -6.510701 2.480907 237.845016 -0.000027 -0.000029 16.457204 -7.068259 -3.676993 -36.072109 4.801219 178.758865 -4.096464 -1.041910 13.967429 -130.516006 0.000012 -0.000105 23.997784 18.417252 -22.726362 -255.921021 -0.000008 -0.000029 76.065064 37.014021 37.352631 -237.845154 0.000014 -0.000001 -4.564594 7.465462 33.360795 90.818001 0.000027 -0.000023 17.180287 -37.017890 -13.879428 0.000016 0.000048 -381.949005 16.083663 32.128660 3.221161 0.000006 0.000052 -400.430023 18.425231 4.271712 7.087614 0.000020 -136.226990 -59.031677 -0.000001 -0.000000 0.000001 -90.818008 0.000012 -0.000069 13.562817 -26.836546 35.993072 -0.000020 0.000071 -381.949097 -19.922359 29.648991 -13.724459 0.000042 0.000087 -400.429993 -26.738090 -2.970211 -12.681737 0.000011 -136.226990 -59.031673 0.000000 -0.000002 0.000000 
-34.809708 -18.507729 751.262512 -0.978677 18.301944 -2.641642 -0.000002 -0.000027 277.694672 -2.851119 -19.951006 -10.701638 0.000000 -0.000039 221.388107 -2.405314 11.480139 -1.746909 -0.000004 -18.163622 140.768021 -0.942876 2.899128 13.824585 36.576706 4.801200 178.758972 1.323808 -5.665130 -17.482979 130.515900 0.000003 0.000023 -9.868001 -11.879346 7.658109 255.920990 0.000028 -0.000109 1.312706 -6.544190 2.426568 237.845047 -0.000009 0.000040 16.415987 -7.101927 -3.700319 -36.072113 4.801203 178.759003 -4.166733 -1.005000 13.973185 -130.516006 -0.000021 0.000121 23.988275 18.233310 -22.860715 -255.920929 -0.000096 0.000108 76.131822 36.974351 37.161922 -237.845032 -0.000016 -0.000081 -4.567222 7.554869 33.336494 90.818001 0.000019 -0.000046 17.164716 -37.030957 -13.890562 -0.000053 0.000071 -381.949127 16.046090 32.103972 3.233305 -0.000010 0.000075 -400.430023 18.433043 4.297411 7.085055 0.000027 -136.226974 -59.031681 -0.000001 0.000001 0.000001 -90.818008 0.000008 -0.000061 13.540042 -26.812015 35.958193 0.000041 0.000060 -381.949036 -19.978660 29.630891 -13.706871 0.000027 0.000091 -400.430054 -26.734592 -2.973412 -12.683598 -0.000007 -136.226959 -59.031677 -0.000001 -0.000000 0.000000 
-34.913734 -18.545727 751.330078 -0.936947 18.300104 -2.620949 0.000002 -0.000042 277.694580 -2.768654 -19.958139 -10.590371 -0.000011 -0.000016 221.388107 -2.229347 11.549251 -1.495147 -0.000013 -18.163572 140.767960 -0.801190 2.956041 13.615408 36.576691 4.801208 178.759109 1.342867 -5.728846 -17.463236 130.516022 -0.000025 -0.000069 -10.101723 -11.773592 7.451953 255.921005 0.000022 -0.000056 1.218688 -6.569054 2.390522 237.844971 -0.000046 0.000078 16.467163 -7.133678 -3.753104 -36.072109 4.801220 178.758987 -4.319929 -0.905384 14.003539 -130.516006 -0.000030 -0.000119 24.069083 17.999039 -22.983938 -255.920883 -0.000084 0.000102 76.133721 36.902488 36.991219 -237.845108 0.000072 0.000142 -4.553118 7.626998 33.337815 90.817993 0.000019 -0.000103 17.223280 -37.052738 -13.849532 -0.000015 0.000065 -381.948975 16.049100 32.062014 3.163966 -0.000017 0.000054 -400.430054 18.353968 4.336767 7.089648 0.000012 -136.226913 -59.031677 0.000001 -0.000000 -0.000001 -90.817986 0.000002 -0.000126 13.514449 -26.786059 35.916341 -0.000004 0.000067 -381.949066 -19.963487 29.606012 -13.723686 0.000004 0.000049 -400.429993 -26.785570 -2.969996 -12.682167 -0.000002 -136.226990 -59.031677 -0.000000 -0.000000 0.000001 
